HIERARCHY
ROOT pelvis
{
  OFFSET 0 100 0
  CHANNELS 6 Xposition Yposition Zposition Zrotation Xrotation Yrotation
  JOINT pelvis_right_femur
  {
    OFFSET -10.78128 -3.44521 -0.5502486
    CHANNELS 3 Zrotation Xrotation Yrotation
    JOINT right_femur_tibia
    {
      OFFSET -0.8047443 -44.0398 -0.1307829
      CHANNELS 3 Zrotation Xrotation Yrotation
      JOINT right_tibia_foot
      {
        OFFSET 3.006224 -47.83518 -5
        CHANNELS 3 Zrotation Xrotation Yrotation
        End Site
        {
          OFFSET 0 -5 15
        }
      }
    }
  }
  JOINT pelvis_left_femur
  {
    OFFSET 10.78128 -3.44521 -0.5502486
    CHANNELS 3 Zrotation Xrotation Yrotation
    JOINT left_femur_tibia
    {
      OFFSET 0.8047443 -44.0398 -0.1307829
      CHANNELS 3 Zrotation Xrotation Yrotation
      JOINT left_tibia_foot
      {
        OFFSET -4.370144 -48.10324 -4.275266
        CHANNELS 3 Zrotation Xrotation Yrotation
        End Site
        {
          OFFSET 0 -5 15
        }
      }
    }
  }
  JOINT pelvis_spine1
  {
    OFFSET 0 6.468898 -3.129235
    CHANNELS 3 Zrotation Xrotation Yrotation
    JOINT spine1
    {
      OFFSET 0 23.15396 4.99043
      CHANNELS 3 Zrotation Xrotation Yrotation
      JOINT spine2
      {
        OFFSET 0 20.79997 -5.064912
        CHANNELS 3 Zrotation Xrotation Yrotation
        JOINT neck
        {
          OFFSET 0 14.38658 9.616178
          CHANNELS 3 Zrotation Xrotation Yrotation
          End Site
          {
            OFFSET 0 20 0
          }
        }
      }
      JOINT right_manubrium
      {
        OFFSET -5.722621 16.35077 3.967754
        CHANNELS 3 Zrotation Xrotation Yrotation
        JOINT right_clavicle
        {
          OFFSET -13.16364 1.694482 -4.693211
          CHANNELS 3 Zrotation Xrotation Yrotation
          JOINT right_humerus
          {
            OFFSET -28.5034 -0.3100689 -2.792744
            CHANNELS 3 Zrotation Xrotation Yrotation
            JOINT right_radius
            {
              OFFSET -25.15693 0.02248979 -1.271978
              CHANNELS 3 Zrotation Xrotation Yrotation
              End Site
              {
                OFFSET -15 0 0
              }
            }
          }
        }
      }
      JOINT left_manubrium
      {
        OFFSET 5.722621 16.35077 3.967754
        CHANNELS 3 Zrotation Xrotation Yrotation
        JOINT left_clavicle
        {
          OFFSET 13.16364 1.694482 -4.693211
          CHANNELS 3 Zrotation Xrotation Yrotation
          JOINT left_humerus
          {
            OFFSET 29.39168 -1.063119 -2.237045
            CHANNELS 3 Zrotation Xrotation Yrotation
            JOINT left_radius
            {
              OFFSET 24.59957 -0.9528479 0.9047498
              CHANNELS 3 Zrotation Xrotation Yrotation
              End Site
              {
                OFFSET 15 -0 -0
              }
            }
          }
        }
      }
    }
  }
}
MOTION
Frames: 19
Frame Time: 0.0416666666667
0 103.5113 0 -0.3814222 -3.882863 -0.22043 2.624304 -5.306374 10.54703 -0 34.35323 -0 -10.24275 -16.77418 -7.506081 -5.833045 11.47581 -17.38521 -0 11.31785 -0 12.02575 -21.42874 28.53385 -1.22586 -4.946687 4.223484 2.605029 11.61254 -8.91495 -1.672937 21.72396 11.14283 4.569656 -23.42142 7.786153 9.323489 -16.53898 15.23705 81.06111 37.66502 -18.08088 -0 0 18.00464 -11.02335 7.477147 3.716434 5.041842 -21.46884 -1.426989 -96.25956 32.67172 26.66541 0 0 -17.79846 -0.5843008 6.698232 21.0244
0.5736315 103.6194 1.76159 -0.3918959 -3.87478 -0.2125848 3.697022 -9.076067 9.721243 -0 38.23645 -0 -10.4576 -16.52761 -8.0056 -5.942827 13.22093 -16.97409 -0 10.00557 -0 11.24525 -21.91758 27.88089 -1.777487 -4.093984 3.591728 2.742683 11.47607 -9.377851 -1.872564 21.29086 11.46542 4.878542 -23.14085 7.5561 9.488261 -16.6382 14.81995 81.11437 37.39475 -18.48312 -0 0 17.623 -11.19478 7.61609 3.812062 5.22261 -21.73596 -1.209595 -95.3865 32.47837 26.18168 0 0 -17.69667 -0.2935049 6.366805 20.67591
1.010738 103.713 3.697155 -0.386876 -3.776119 0.007450813 4.444401 -13.26573 8.412767 -0 40.06071 -0 -10.58747 -15.75276 -8.184951 -5.911663 15.11184 -16.60414 -0 8.539881 -0 10.31745 -22.31315 27.06762 -2.300146 -3.014002 3.171998 3.07543 11.26303 -9.755076 -1.800842 20.90671 11.68649 5.169476 -23.29978 7.66237 9.415313 -16.92555 14.3392 81.15824 37.14908 -18.80309 -0 0 17.30772 -11.37137 7.765552 3.952551 5.543034 -21.74603 -0.9093316 -94.87903 32.15857 25.8252 0 0 -17.92768 0.07316191 6.027281 20.17789
1.446133 103.7075 5.773327 -0.3755539 -3.642893 0.3087768 4.864874 -17.80714 6.934123 -0 39.94989 -0 -10.75995 -14.55427 -8.241594 -5.863211 16.98207 -16.23056 -0 7.19905 -0 9.389376 -22.72511 26.18334 -2.787825 -1.508782 2.921737 3.483347 10.95688 -10.07045 -1.535607 20.33866 11.75984 5.411228 -23.87366 7.907126 9.119347 -16.66442 13.77038 81.72266 36.94695 -19.78641 -0 0 16.50139 -11.38832 7.966145 3.971394 6.047984 -22.42879 -0.5627753 -93.93816 31.84487 24.67843 0 0 -18.95809 0.610148 5.804534 19.41766
1.771231 103.3337 8.095414 -0.3510551 -3.441757 0.7709192 5.107395 -22.29133 5.674542 -0 37.525 -0 -10.76365 -13.34608 -8.149425 -5.788932 18.72725 -15.84459 -0 6.304469 -0 8.565337 -23.2385 25.26733 -3.219721 0.1349633 2.809252 3.818532 10.41444 -10.2665 -1.239646 19.77022 11.6962 5.568694 -24.54764 8.091982 8.816725 -16.47815 13.25437 82.39239 36.7785 -20.67556 -0 0 15.69871 -11.38133 8.200265 4.023309 6.73346 -23.58488 -0.00627031 -92.71967 31.49293 23.03127 0 0 -20.57828 1.293449 5.68988 18.50195
2.094359 102.7353 10.59559 -0.3211098 -3.212716 1.299748 5.170968 -26.3851 4.757525 -0 33.50894 -0 -10.6316 -11.96697 -7.868149 -5.747337 20.18367 -15.44987 -0 5.956829 -0 7.791231 -23.78377 24.27501 -3.541219 1.994036 2.672304 4.132548 9.873507 -10.44604 -0.8521847 19.14769 11.56446 5.694497 -25.41278 8.365152 8.430405 -16.35965 12.79659 83.05618 36.65579 -21.46197 -0 0 14.86079 -11.35724 8.464197 4.103853 7.449728 -24.80219 0.4080331 -91.53022 31.14312 21.25611 0 0 -22.3819 1.967294 5.603103 17.5117
2.521585 101.9389 13.62255 -0.2691027 -2.842795 2.161231 4.910293 -29.73232 4.099814 -0 28.84191 -0 -10.47113 -10.6007 -7.436802 -5.827233 21.55097 -14.85851 -0 6.174808 -0 6.86987 -24.14023 23.11569 -3.772797 3.46022 2.487704 4.450397 9.481886 -10.61612 -0.3888189 18.67657 11.35394 5.796128 -26.30307 8.693801 7.982122 -16.16124 12.25862 83.76756 36.57896 -22.23336 -0 0 13.81535 -11.31738 8.766612 4.187892 8.076655 -25.78318 0.6785784 -90.55608 30.74777 19.48928 0 0 -24.25672 2.601956 5.510587 16.48113
2.84557 101.1311 17.24979 -0.2176244 -2.457481 3.059907 4.933692 -32.19928 3.940367 -0 24.56474 -0 -10.35991 -9.253887 -6.825013 -5.662748 23.00735 -14.23982 -0 7.26376 -0 5.676773 -24.13313 21.73628 -3.756537 4.491895 2.118801 4.639848 9.414414 -10.88472 -0.09782857 18.65844 11.19354 5.765373 -27.02693 9.054495 7.586882 -16.00683 11.81441 84.56884 36.52333 -22.9206 -0 0 12.81196 -11.28042 9.109669 4.333531 8.417078 -26.6054 0.9043212 -89.66393 30.29767 17.96045 0 0 -25.69722 3.206206 5.400962 15.56294
3.153315 100.5342 21.62306 -0.171089 -2.077588 3.946218 5.118496 -33.01581 4.088288 -0 22.1293 -0 -10.47402 -8.280009 -6.254693 -5.615179 23.97585 -13.53717 -0 9.863579 -0 4.091591 -23.27406 20.27876 -3.575597 4.855807 1.745737 4.670785 9.384225 -11.1609 0.009822106 18.65223 11.06625 5.643218 -27.36127 9.216203 7.221451 -15.72812 11.45652 85.52067 36.48118 -23.60474 -0 0 11.77969 -11.25522 9.493685 4.524772 8.417618 -26.9624 0.999896 -89.23903 29.80585 17.04959 0 0 -26.53061 3.691224 5.249348 14.82259
3.445463 100.1023 26.78514 -0.1348931 -1.750285 4.709236 5.419721 -31.50295 4.387124 -0 22.12587 -0 -10.80698 -7.478484 -5.888417 -5.698516 24.06676 -12.89102 -0 14.43888 -0 2.056885 -21.12265 18.78504 -3.200565 4.631469 1.420348 4.58923 9.379335 -11.47542 -0.09280498 18.69542 10.94907 5.371479 -27.26942 9.159589 6.786426 -15.34241 11.10302 86.51387 36.43556 -24.23877 -0 0 10.85632 -11.27281 9.907663 4.804748 8.154742 -26.85474 0.9718777 -89.32816 29.31641 16.82352 0 0 -26.73458 4.018502 5.06411 14.26321
3.814084 100.1026 32.64655 -0.1228702 -1.624982 5.000947 5.896783 -28.97864 4.808314 -0 23.20523 -0 -11.27235 -6.863452 -5.632302 -5.829569 23.72254 -12.05648 -0 21.10684 -0 -0.3270962 -17.32709 17.24464 -2.480973 4.0378 1.347576 4.504562 9.404155 -11.60469 -0.4829764 18.79179 10.90172 4.917024 -26.88117 8.928668 6.417615 -14.91589 10.88145 87.34759 36.44537 -24.76302 -0 0 9.904228 -11.36689 10.35851 5.14696 7.626541 -26.45691 0.9269433 -89.92058 28.85007 17.14751 0 0 -26.49607 4.232372 4.911923 13.83718
4.246244 100.5179 38.71013 -0.1473315 -1.82723 4.528919 6.186252 -25.83842 5.275246 -0 24.27462 -0 -11.71883 -7.090371 -5.504813 -6.745626 21.65523 -10.6731 -0 30.11888 -0 -2.590738 -12.08378 16.15876 -1.926318 3.528449 1.628411 4.453433 9.625741 -11.44562 -0.7551908 18.9461 10.84153 4.536078 -26.33672 8.769583 6.161448 -14.70698 10.93529 87.78303 36.55391 -24.74878 -0 0 9.202619 -11.56498 10.84834 5.528406 6.958626 -25.94782 0.7630913 -90.58505 28.39261 17.81363 0 0 -25.88113 4.36651 4.751989 13.49342
4.610106 101.1834 44.56002 -0.2079434 -2.295048 3.435639 6.516743 -21.7982 5.527787 -0 24.23992 -0 -12.08728 -8.197367 -5.206813 -7.194298 17.72457 -9.390284 -0 40.26807 -0 -4.187151 -6.79934 15.46275 -1.410742 3.188287 2.361343 4.343755 9.977284 -10.94543 -1.019453 19.36113 10.71931 4.191074 -25.55438 8.50533 6.121843 -14.93228 11.33741 87.60284 36.78255 -23.92481 -0 0 8.853016 -11.96039 11.31557 6.009222 6.107686 -25.52516 0.5674531 -91.31281 27.96689 18.72014 0 0 -24.88113 4.340249 4.594061 13.25638
5.027686 102.3056 50.15463 -0.2803187 -2.789589 2.278543 6.444744 -17.00902 5.475561 -0 22.84545 -0 -12.10654 -9.51594 -4.679666 -6.62239 11.02616 -8.019616 -0 49.60439 -0 -5.061804 -2.913839 15.69858 -1.072932 2.936502 3.548307 4.281674 10.39161 -10.18193 -1.131009 19.8715 10.42269 3.940121 -24.6432 8.10433 6.191828 -15.3926 11.93381 86.84902 37.051 -22.48109 -0 0 8.847554 -12.61585 11.72766 6.614119 5.274634 -25.09583 0.3915264 -92.10968 27.54458 19.79615 0 0 -23.83791 4.240675 4.454212 12.97687
5.420661 103.457 55.65175 -0.3516251 -3.231902 1.240844 6.142121 -11.68895 5.179612 -0 20.28174 -0 -11.75645 -10.70277 -4.011684 -5.427756 4.284842 -7.2312 -0 56.6093 -0 -5.665168 -0.2797723 16.1224 -0.842053 2.474836 4.816768 4.211611 10.71715 -9.41254 -1.24142 20.44624 10.00765 3.693062 -23.45795 7.514519 6.287264 -16.19125 12.55719 85.69639 37.29842 -20.29326 -0 0 9.377511 -13.62129 12.05487 7.44966 4.826486 -24.55409 0.2593506 -92.91343 27.12021 20.99018 0 0 -22.79738 4.065671 4.288439 12.79528
5.721745 104.7766 60.77846 -0.3868883 -3.453036 0.724557 5.701038 -6.3431 4.685282 -0 16.87713 -0 -11.04902 -11.57242 -3.226709 -3.783481 -4.344832 -5.974617 -0 57.81054 -0 -5.001656 -0.5085107 17.18387 -0.8257857 2.066046 5.907195 3.976078 10.92544 -8.678466 -1.228058 20.97897 9.531949 3.512378 -22.16531 6.950374 6.145422 -17.00815 12.89182 84.39573 37.3235 -17.81144 -0 0 10.58331 -14.91762 12.22861 8.552155 4.697724 -24.02034 0.2964732 -93.46311 26.69694 22.20312 0 0 -21.73641 3.85934 4.113844 12.65338
6.11211 105.8079 65.83664 -0.408232 -3.593873 0.3934113 5.174233 -1.215425 4.104919 -0 13.43693 -0 -10.1698 -12.33804 -2.447397 -1.822253 -11.35557 -5.098261 -0 54.78969 -0 -3.952889 -1.541342 17.88275 -0.7922189 1.899457 6.628587 3.506868 10.96076 -7.99441 -1.229181 21.27188 9.121496 3.310758 -20.95719 6.469892 5.792857 -17.92216 13.17568 82.95015 37.18101 -14.97695 -0 0 12.42446 -16.39741 12.27029 9.881912 4.759277 -23.49099 0.2831605 -93.7698 26.33831 23.41168 0 0 -20.50069 3.574664 3.92887 12.58794
6.452352 106.1149 70.82444 -0.4153646 -3.652711 0.2542301 4.745696 3.448944 3.51693 -0 10.59412 -0 -9.297744 -13.32963 -1.826399 0.3905067 -17.21237 -4.009622 -0 48.10721 -0 -3.088851 -2.254347 18.87044 -0.7314208 1.733821 7.13297 2.921851 10.90202 -7.32617 -1.333331 21.38222 8.860717 3.055054 -19.78192 6.099888 5.372298 -18.93474 13.38136 81.42366 36.87923 -11.92412 -0 0 14.72896 -17.97889 12.20995 11.32048 4.933756 -22.909 0.3446649 -93.85452 26.00411 24.57958 0 0 -19.1334 3.286497 3.766021 12.58247
6.864852 105.7136 75.85826 -0.4022604 -3.595104 0.3886529 4.429101 7.583315 2.973794 -0 8.601886 -0 -8.517598 -14.66721 -1.466922 2.745063 -21.46272 -2.276404 -0 38.96214 -0 -2.635555 -2.237793 20.1732 -0.7701238 1.649872 7.34023 2.305514 10.76389 -6.837784 -1.365157 21.31979 8.660298 2.834805 -18.73333 5.875447 4.930361 -20.04964 13.45781 79.76125 36.38981 -8.747795 -0 0 17.28811 -19.64011 12.06184 12.75351 5.095439 -22.44183 0.3700263 -93.63275 25.73231 25.54589 0 0 -17.56044 2.985042 3.615845 12.68682
